
		<svg xmlns="http://www.w3.org/2000/svg" width="80" height="80" viewBox="0 0 80 80" version="1.1" class="rc-reset">
			<path fill="#fff" transform="translate(42.734279, 41.499449) rotate(120.000000) translate(-42.734279, -41.499449)" d="M27.9 50.2C26.6 50.9 26 50.9 25 49.7 24.7 49.4 24.8 49.1 25.1 48.9 28 47.3 29.8 46.2 32.3 44.8 32.5 44.6 32.8 44.5 33.1 44.5 33.3 44.4 33.6 44.6 33.7 44.7 34.1 45.6 33.6 46.9 32.7 47.4 31.9 47.9 30.8 48.5 30.2 48.8 29.6 49.2 28.7 49.8 27.9 50.2ZM57.5 50.2C58.8 50.9 59.4 50.9 60.4 49.7 60.7 49.4 60.7 49.1 60.3 48.9 57.4 47.3 55.6 46.2 53.2 44.8 52.9 44.6 52.6 44.5 52.3 44.5 52.2 44.4 51.8 44.6 51.8 44.7 51.4 45.6 51.9 46.9 52.7 47.4 53.6 47.9 54.6 48.5 55.2 48.8 55.9 49.2 56.8 49.8 57.5 50.2ZM60.9 47.9C59.2 46.9 54.9 44.4 52.9 43.3 52.7 43.1 52.4 42.8 52.4 42.5 52.1 40.7 50.9 39.3 49 39.3 46.9 39.3 44.8 39.2 42.7 39.2 40.7 39.2 38.6 39.3 36.5 39.3 34.6 39.3 33.4 40.7 33.1 42.5 33.1 42.8 32.8 43.1 32.6 43.3 30.6 44.4 27.1 46.4 24.6 47.8 24.3 48 23.7 47.8 23.4 47 23.2 46.4 23.1 45.8 23 45.2 22.3 41.7 23.6 38 26.8 36.4 28.7 35.4 30.7 34.6 32.7 33.9 35.9 32.6 39.3 32.3 42.7 32.4 46.2 32.3 49.5 32.6 52.8 33.9 54.8 34.6 56.8 35.4 58.7 36.4 61.9 38 63.2 41.7 62.5 45.2 62.4 45.8 61.9 46.9 61.7 47.5 61.6 47.8 61.2 48 60.9 47.9Z" class="rc-reset"></path>
		</svg>
	