<?xml version="1.0" encoding="UTF-8" standalone="no"?>
<svg width="27px" height="27px" viewBox="0 0 27 27" version="1.1" xmlns="http://www.w3.org/2000/svg">
    <g stroke="none" stroke-width="1" fill="#FFFFFF" fill-rule="evenodd" transform="translate(-1, -131)">
        <path d="M14.5,158 C21.955,158 28,151.955 28,144.5 C28,137.044 21.955,131 14.5,131 C7.044,131 1,137.044 1,144.5 C1,151.955 7.044,158 14.5,158 Z M10.543,144.668 L6.586,148.251 L6.586,141.086 L10.543,144.668 Z M22.376,139.379 L6.586,139.379 L14.5,146.489 L22.376,139.379 Z M18.457,144.668 L22.413,148.196 L22.411,141.117 L18.457,144.668 Z M14.5,148.471 L11.511,145.55 L6.987,149.931 L21.981,149.931 L17.457,145.519 L14.5,148.471 Z"></path>
    </g>
</svg>